<svg xmlns="http://www.w3.org/2000/svg" xmlns:xlink="http://www.w3.org/1999/xlink" width="500" zoomAndPan="magnify" viewBox="0 0 375 374.999991" height="500" preserveAspectRatio="xMidYMid meet" version="1.0"><defs><clipPath id="25cae0739a"><path d="M 60.785156 18.75 L 314.285156 18.75 L 314.285156 356.25 L 60.785156 356.25 Z M 60.785156 18.75 " clip-rule="nonzero"/></clipPath></defs><g clip-path="url(#25cae0739a)"><path fill="#ffffff" d="M 314.027344 80.65625 C 313.921875 79.136719 313.339844 77.828125 312.289062 76.726562 L 254.578125 20.265625 C 253.371094 19.191406 251.957031 18.621094 250.34375 18.546875 L 124.585938 18.546875 C 123.925781 18.546875 123.265625 18.578125 122.609375 18.644531 C 121.953125 18.710938 121.300781 18.808594 120.65625 18.9375 C 120.007812 19.066406 119.371094 19.226562 118.738281 19.417969 C 118.105469 19.609375 117.488281 19.832031 116.878906 20.085938 C 116.269531 20.339844 115.671875 20.621094 115.089844 20.929688 C 114.507812 21.242188 113.945312 21.582031 113.394531 21.949219 C 112.847656 22.316406 112.320312 22.707031 111.808594 23.125 C 111.296875 23.542969 110.808594 23.988281 110.34375 24.453125 C 109.878906 24.921875 109.433594 25.410156 109.015625 25.917969 C 108.597656 26.429688 108.203125 26.957031 107.839844 27.507812 C 107.472656 28.054688 107.132812 28.621094 106.820312 29.199219 C 106.511719 29.78125 106.226562 30.378906 105.976562 30.988281 C 105.722656 31.597656 105.5 32.21875 105.308594 32.847656 C 105.117188 33.480469 104.957031 34.117188 104.828125 34.765625 C 104.699219 35.414062 104.601562 36.0625 104.535156 36.71875 C 104.46875 37.378906 104.4375 38.035156 104.4375 38.695312 L 104.4375 62.089844 L 81.042969 62.089844 C 80.382812 62.089844 79.722656 62.121094 79.066406 62.1875 C 78.410156 62.253906 77.757812 62.351562 77.113281 62.480469 C 76.464844 62.609375 75.828125 62.769531 75.195312 62.960938 C 74.566406 63.152344 73.945312 63.375 73.335938 63.628906 C 72.726562 63.882812 72.128906 64.164062 71.546875 64.472656 C 70.964844 64.785156 70.402344 65.125 69.851562 65.492188 C 69.304688 65.859375 68.777344 66.25 68.265625 66.667969 C 67.757812 67.085938 67.269531 67.53125 66.800781 67.996094 C 66.335938 68.464844 65.890625 68.953125 65.472656 69.460938 C 65.054688 69.972656 64.664062 70.5 64.296875 71.046875 C 63.929688 71.597656 63.589844 72.160156 63.277344 72.742188 C 62.96875 73.324219 62.6875 73.921875 62.433594 74.53125 C 62.179688 75.140625 61.957031 75.761719 61.765625 76.390625 C 61.574219 77.023438 61.414062 77.660156 61.285156 78.308594 C 61.15625 78.957031 61.058594 79.605469 60.992188 80.261719 C 60.925781 80.917969 60.894531 81.578125 60.894531 82.238281 L 60.894531 336.296875 C 60.894531 336.953125 60.925781 337.613281 60.992188 338.269531 C 61.058594 338.925781 61.15625 339.578125 61.285156 340.222656 C 61.414062 340.871094 61.574219 341.511719 61.765625 342.140625 C 61.957031 342.773438 62.179688 343.394531 62.433594 344.003906 C 62.6875 344.613281 62.96875 345.207031 63.277344 345.789062 C 63.589844 346.371094 63.929688 346.933594 64.296875 347.484375 C 64.664062 348.03125 65.054688 348.5625 65.472656 349.070312 C 65.890625 349.582031 66.335938 350.070312 66.800781 350.535156 C 67.269531 351.003906 67.757812 351.445312 68.265625 351.863281 C 68.777344 352.28125 69.304688 352.675781 69.851562 353.042969 C 70.402344 353.40625 70.96875 353.746094 71.546875 354.058594 C 72.128906 354.371094 72.726562 354.652344 73.335938 354.902344 C 73.945312 355.15625 74.566406 355.378906 75.195312 355.570312 C 75.828125 355.761719 76.464844 355.921875 77.113281 356.054688 C 77.761719 356.183594 78.410156 356.28125 79.066406 356.34375 C 79.722656 356.410156 80.382812 356.441406 81.042969 356.445312 L 250.414062 356.445312 C 251.074219 356.441406 251.730469 356.410156 252.386719 356.34375 C 253.042969 356.277344 253.695312 356.183594 254.34375 356.050781 C 254.988281 355.921875 255.628906 355.761719 256.257812 355.570312 C 256.890625 355.378906 257.511719 355.15625 258.121094 354.902344 C 258.730469 354.652344 259.324219 354.367188 259.90625 354.058594 C 260.488281 353.746094 261.050781 353.40625 261.601562 353.039062 C 262.148438 352.671875 262.679688 352.28125 263.1875 351.863281 C 263.699219 351.445312 264.1875 351 264.652344 350.535156 C 265.117188 350.066406 265.5625 349.578125 265.980469 349.070312 C 266.398438 348.558594 266.789062 348.03125 267.15625 347.484375 C 267.523438 346.933594 267.863281 346.371094 268.175781 345.789062 C 268.484375 345.207031 268.765625 344.609375 269.019531 344 C 269.273438 343.390625 269.496094 342.773438 269.6875 342.140625 C 269.878906 341.507812 270.039062 340.871094 270.167969 340.222656 C 270.296875 339.578125 270.394531 338.925781 270.460938 338.269531 C 270.527344 337.613281 270.558594 336.953125 270.558594 336.292969 L 270.558594 312.902344 L 293.957031 312.902344 C 294.617188 312.898438 295.277344 312.867188 295.933594 312.800781 C 296.589844 312.738281 297.242188 312.640625 297.886719 312.511719 C 298.535156 312.378906 299.171875 312.21875 299.804688 312.027344 C 300.433594 311.835938 301.054688 311.613281 301.664062 311.359375 C 302.273438 311.109375 302.871094 310.824219 303.449219 310.515625 C 304.03125 310.203125 304.597656 309.863281 305.144531 309.496094 C 305.695312 309.128906 306.222656 308.738281 306.734375 308.320312 C 307.242188 307.902344 307.730469 307.457031 308.199219 306.992188 C 308.664062 306.527344 309.105469 306.039062 309.523438 305.527344 C 309.945312 305.015625 310.335938 304.488281 310.703125 303.941406 C 311.070312 303.390625 311.410156 302.828125 311.71875 302.246094 C 312.03125 301.664062 312.3125 301.066406 312.566406 300.457031 C 312.816406 299.847656 313.039062 299.230469 313.230469 298.597656 C 313.425781 297.964844 313.585938 297.328125 313.714844 296.679688 C 313.84375 296.035156 313.941406 295.382812 314.003906 294.726562 C 314.070312 294.070312 314.105469 293.410156 314.105469 292.75 C 314.027344 292.367188 314.253906 80.980469 314.027344 80.65625 Z M 256.394531 38.925781 L 293.273438 75.003906 L 264.472656 75.003906 C 263.941406 75.003906 263.417969 74.949219 262.898438 74.847656 C 262.375 74.742188 261.871094 74.589844 261.382812 74.386719 C 260.890625 74.183594 260.425781 73.933594 259.984375 73.636719 C 259.546875 73.34375 259.136719 73.007812 258.761719 72.632812 C 258.386719 72.257812 258.050781 71.851562 257.757812 71.410156 C 257.464844 70.96875 257.214844 70.503906 257.011719 70.011719 C 256.808594 69.523438 256.65625 69.019531 256.550781 68.5 C 256.445312 67.976562 256.394531 67.453125 256.394531 66.921875 Z M 258.492188 336.292969 C 258.492188 336.824219 258.4375 337.351562 258.335938 337.871094 C 258.230469 338.390625 258.078125 338.894531 257.875 339.386719 C 257.671875 339.875 257.421875 340.339844 257.128906 340.78125 C 256.832031 341.222656 256.5 341.628906 256.125 342.003906 C 255.75 342.378906 255.339844 342.714844 254.898438 343.011719 C 254.457031 343.304688 253.992188 343.554688 253.503906 343.757812 C 253.011719 343.960938 252.507812 344.113281 251.988281 344.21875 C 251.46875 344.324219 250.941406 344.375 250.414062 344.375 L 81.042969 344.375 C 80.511719 344.382812 79.984375 344.335938 79.460938 344.234375 C 78.9375 344.136719 78.429688 343.984375 77.9375 343.785156 C 77.445312 343.582031 76.976562 343.335938 76.53125 343.039062 C 76.089844 342.746094 75.679688 342.410156 75.300781 342.035156 C 74.925781 341.65625 74.589844 341.25 74.296875 340.804688 C 74 340.363281 73.753906 339.894531 73.554688 339.402344 C 73.351562 338.90625 73.203125 338.398438 73.101562 337.878906 C 73.003906 337.355469 72.957031 336.828125 72.960938 336.292969 L 72.960938 82.238281 C 72.960938 81.707031 73.015625 81.179688 73.117188 80.660156 C 73.222656 80.140625 73.375 79.636719 73.578125 79.144531 C 73.78125 78.65625 74.03125 78.191406 74.324219 77.75 C 74.621094 77.308594 74.957031 76.902344 75.332031 76.523438 C 75.707031 76.148438 76.113281 75.816406 76.554688 75.519531 C 76.996094 75.226562 77.460938 74.976562 77.949219 74.773438 C 78.441406 74.570312 78.945312 74.417969 79.464844 74.3125 C 79.988281 74.207031 80.511719 74.15625 81.042969 74.15625 L 104.4375 74.15625 L 104.4375 292.75 C 104.4375 293.410156 104.46875 294.070312 104.535156 294.726562 C 104.601562 295.382812 104.699219 296.035156 104.828125 296.679688 C 104.957031 297.328125 105.117188 297.96875 105.308594 298.597656 C 105.5 299.230469 105.722656 299.851562 105.976562 300.460938 C 106.230469 301.066406 106.511719 301.664062 106.820312 302.246094 C 107.132812 302.828125 107.472656 303.390625 107.839844 303.941406 C 108.207031 304.488281 108.597656 305.019531 109.015625 305.527344 C 109.433594 306.039062 109.878906 306.527344 110.34375 306.992188 C 110.8125 307.460938 111.296875 307.902344 111.808594 308.320312 C 112.320312 308.738281 112.847656 309.132812 113.394531 309.5 C 113.945312 309.863281 114.507812 310.203125 115.089844 310.515625 C 115.671875 310.828125 116.269531 311.109375 116.878906 311.359375 C 117.488281 311.613281 118.109375 311.835938 118.738281 312.027344 C 119.371094 312.21875 120.007812 312.382812 120.65625 312.511719 C 121.300781 312.640625 121.953125 312.738281 122.609375 312.800781 C 123.265625 312.867188 123.925781 312.898438 124.585938 312.902344 L 258.492188 312.902344 Z M 293.957031 300.832031 L 124.585938 300.832031 C 124.054688 300.832031 123.527344 300.78125 123.007812 300.675781 C 122.488281 300.574219 121.984375 300.417969 121.492188 300.214844 C 121.003906 300.011719 120.539062 299.761719 120.097656 299.46875 C 119.65625 299.171875 119.25 298.839844 118.875 298.464844 C 118.496094 298.089844 118.164062 297.679688 117.867188 297.238281 C 117.574219 296.796875 117.324219 296.332031 117.121094 295.84375 C 116.917969 295.351562 116.765625 294.847656 116.660156 294.328125 C 116.554688 293.808594 116.503906 293.28125 116.503906 292.75 L 116.503906 38.695312 C 116.503906 38.164062 116.554688 37.640625 116.660156 37.117188 C 116.765625 36.597656 116.917969 36.09375 117.121094 35.605469 C 117.324219 35.113281 117.574219 34.648438 117.867188 34.207031 C 118.164062 33.765625 118.5 33.359375 118.875 32.984375 C 119.25 32.609375 119.65625 32.273438 120.097656 31.980469 C 120.539062 31.683594 121.003906 31.433594 121.492188 31.230469 C 121.984375 31.027344 122.488281 30.875 123.007812 30.769531 C 123.527344 30.667969 124.054688 30.613281 124.585938 30.613281 L 244.328125 30.613281 L 244.328125 66.921875 C 244.328125 67.582031 244.359375 68.242188 244.425781 68.898438 C 244.492188 69.554688 244.585938 70.203125 244.71875 70.851562 C 244.847656 71.5 245.007812 72.136719 245.199219 72.769531 C 245.390625 73.398438 245.613281 74.019531 245.867188 74.628906 C 246.117188 75.238281 246.398438 75.835938 246.710938 76.414062 C 247.023438 76.996094 247.363281 77.5625 247.726562 78.109375 C 248.09375 78.660156 248.488281 79.1875 248.90625 79.699219 C 249.324219 80.207031 249.765625 80.695312 250.234375 81.164062 C 250.699219 81.628906 251.1875 82.070312 251.699219 82.492188 C 252.207031 82.910156 252.738281 83.300781 253.285156 83.667969 C 253.832031 84.035156 254.398438 84.375 254.980469 84.683594 C 255.5625 84.996094 256.15625 85.277344 256.765625 85.53125 C 257.375 85.785156 257.996094 86.007812 258.625 86.199219 C 259.257812 86.390625 259.898438 86.550781 260.542969 86.679688 C 261.191406 86.808594 261.84375 86.90625 262.5 86.972656 C 263.15625 87.039062 263.8125 87.070312 264.472656 87.070312 L 302.039062 87.070312 L 302.039062 292.753906 C 302.035156 293.28125 301.984375 293.808594 301.878906 294.328125 C 301.777344 294.847656 301.625 295.351562 301.421875 295.84375 C 301.21875 296.332031 300.96875 296.796875 300.671875 297.238281 C 300.378906 297.679688 300.042969 298.089844 299.667969 298.464844 C 299.292969 298.839844 298.886719 299.171875 298.445312 299.46875 C 298.003906 299.761719 297.539062 300.011719 297.050781 300.214844 C 296.558594 300.417969 296.054688 300.574219 295.535156 300.675781 C 295.015625 300.78125 294.488281 300.832031 293.957031 300.832031 Z M 293.957031 300.832031 " fill-opacity="1" fill-rule="nonzero"/></g><path fill="#ffffff" d="M 181.210938 137.320312 C 180.929688 137.039062 180.625 136.789062 180.296875 136.570312 C 179.96875 136.347656 179.621094 136.164062 179.253906 136.011719 C 178.886719 135.859375 178.511719 135.746094 178.121094 135.667969 C 177.734375 135.589844 177.339844 135.550781 176.945312 135.550781 C 176.550781 135.550781 176.15625 135.589844 175.769531 135.667969 C 175.378906 135.746094 175.003906 135.859375 174.636719 136.011719 C 174.269531 136.164062 173.921875 136.347656 173.59375 136.570312 C 173.265625 136.789062 172.960938 137.039062 172.679688 137.320312 L 148.542969 161.457031 C 148.261719 161.734375 148.011719 162.039062 147.792969 162.371094 C 147.574219 162.699219 147.386719 163.046875 147.234375 163.414062 C 147.082031 163.777344 146.96875 164.15625 146.890625 164.542969 C 146.816406 164.933594 146.777344 165.324219 146.777344 165.722656 C 146.777344 166.117188 146.816406 166.511719 146.890625 166.898438 C 146.96875 167.289062 147.082031 167.664062 147.234375 168.03125 C 147.386719 168.398438 147.574219 168.746094 147.792969 169.074219 C 148.011719 169.402344 148.261719 169.707031 148.542969 169.988281 L 172.679688 194.125 C 172.960938 194.40625 173.265625 194.65625 173.59375 194.878906 C 173.921875 195.101562 174.269531 195.289062 174.636719 195.441406 C 175.003906 195.59375 175.382812 195.707031 175.769531 195.785156 C 176.160156 195.863281 176.550781 195.90625 176.949219 195.90625 C 177.347656 195.90625 177.738281 195.867188 178.128906 195.789062 C 178.519531 195.714844 178.898438 195.597656 179.265625 195.449219 C 179.628906 195.296875 179.980469 195.109375 180.308594 194.890625 C 180.640625 194.667969 180.945312 194.417969 181.226562 194.136719 C 181.507812 193.855469 181.757812 193.550781 181.976562 193.222656 C 182.199219 192.890625 182.382812 192.542969 182.535156 192.175781 C 182.6875 191.808594 182.800781 191.429688 182.878906 191.042969 C 182.957031 190.652344 182.992188 190.257812 182.992188 189.863281 C 182.992188 189.464844 182.953125 189.070312 182.875 188.683594 C 182.796875 188.292969 182.679688 187.914062 182.527344 187.550781 C 182.375 187.183594 182.1875 186.835938 181.964844 186.503906 C 181.746094 186.175781 181.492188 185.871094 181.210938 185.589844 L 161.34375 165.722656 L 181.210938 145.851562 C 181.492188 145.570312 181.742188 145.265625 181.960938 144.9375 C 182.183594 144.609375 182.367188 144.261719 182.519531 143.894531 C 182.671875 143.527344 182.785156 143.152344 182.863281 142.761719 C 182.941406 142.375 182.980469 141.980469 182.980469 141.585938 C 182.980469 141.191406 182.941406 140.796875 182.863281 140.410156 C 182.785156 140.019531 182.671875 139.644531 182.519531 139.277344 C 182.367188 138.910156 182.183594 138.5625 181.960938 138.234375 C 181.742188 137.90625 181.492188 137.601562 181.210938 137.320312 Z M 181.210938 137.320312 " fill-opacity="1" fill-rule="nonzero"/><path fill="#ffffff" d="M 245.859375 137.320312 C 245.574219 137.050781 245.269531 136.808594 244.941406 136.597656 C 244.613281 136.382812 244.265625 136.207031 243.902344 136.0625 C 243.539062 135.917969 243.164062 135.808594 242.78125 135.738281 C 242.394531 135.667969 242.007812 135.632812 241.617188 135.636719 C 241.226562 135.640625 240.839844 135.679688 240.453125 135.761719 C 240.070312 135.839844 239.699219 135.957031 239.339844 136.105469 C 238.976562 136.257812 238.636719 136.441406 238.3125 136.660156 C 237.984375 136.878906 237.683594 137.125 237.410156 137.402344 C 237.132812 137.679688 236.882812 137.980469 236.667969 138.304688 C 236.449219 138.628906 236.261719 138.972656 236.113281 139.332031 C 235.960938 139.695312 235.84375 140.066406 235.765625 140.449219 C 235.6875 140.832031 235.644531 141.21875 235.640625 141.609375 C 235.636719 142.003906 235.671875 142.390625 235.742188 142.773438 C 235.816406 143.160156 235.921875 143.535156 236.066406 143.898438 C 236.210938 144.261719 236.390625 144.605469 236.601562 144.9375 C 236.8125 145.265625 237.054688 145.570312 237.324219 145.851562 L 257.195312 165.722656 L 237.324219 185.589844 C 237.042969 185.871094 236.792969 186.175781 236.574219 186.503906 C 236.351562 186.835938 236.167969 187.183594 236.015625 187.550781 C 235.863281 187.914062 235.746094 188.292969 235.667969 188.679688 C 235.59375 189.070312 235.554688 189.464844 235.550781 189.859375 C 235.550781 190.257812 235.589844 190.648438 235.667969 191.039062 C 235.746094 191.425781 235.859375 191.804688 236.011719 192.171875 C 236.164062 192.535156 236.347656 192.886719 236.570312 193.214844 C 236.789062 193.542969 237.039062 193.847656 237.320312 194.128906 C 237.601562 194.410156 237.90625 194.660156 238.234375 194.878906 C 238.566406 195.101562 238.914062 195.285156 239.277344 195.4375 C 239.644531 195.589844 240.023438 195.703125 240.410156 195.78125 C 240.800781 195.859375 241.195312 195.898438 241.589844 195.898438 C 241.988281 195.898438 242.378906 195.859375 242.769531 195.78125 C 243.15625 195.703125 243.535156 195.585938 243.902344 195.433594 C 244.265625 195.28125 244.613281 195.097656 244.945312 194.875 C 245.273438 194.65625 245.578125 194.40625 245.859375 194.125 L 269.992188 169.988281 C 270.273438 169.707031 270.523438 169.402344 270.746094 169.074219 C 270.964844 168.746094 271.148438 168.398438 271.300781 168.03125 C 271.453125 167.664062 271.566406 167.289062 271.644531 166.898438 C 271.722656 166.511719 271.761719 166.117188 271.761719 165.722656 C 271.761719 165.324219 271.722656 164.933594 271.644531 164.546875 C 271.566406 164.15625 271.453125 163.777344 271.300781 163.414062 C 271.148438 163.046875 270.964844 162.699219 270.746094 162.371094 C 270.523438 162.039062 270.273438 161.734375 269.992188 161.457031 Z M 245.859375 137.320312 " fill-opacity="1" fill-rule="nonzero"/><path fill="#ffffff" d="M 224.761719 123.792969 C 224.386719 123.667969 224.003906 123.578125 223.609375 123.53125 C 223.214844 123.480469 222.824219 123.46875 222.425781 123.496094 C 222.03125 123.523438 221.644531 123.589844 221.261719 123.695312 C 220.878906 123.800781 220.507812 123.941406 220.15625 124.117188 C 219.800781 124.292969 219.46875 124.503906 219.152344 124.746094 C 218.839844 124.992188 218.554688 125.261719 218.296875 125.5625 C 218.035156 125.863281 217.808594 126.183594 217.613281 126.527344 C 217.417969 126.871094 217.257812 127.234375 217.132812 127.609375 L 192.992188 200.015625 C 192.867188 200.390625 192.78125 200.777344 192.730469 201.171875 C 192.679688 201.5625 192.667969 201.957031 192.695312 202.351562 C 192.722656 202.75 192.789062 203.136719 192.894531 203.519531 C 193 203.902344 193.140625 204.269531 193.316406 204.625 C 193.492188 204.980469 193.703125 205.316406 193.945312 205.628906 C 194.1875 205.941406 194.460938 206.226562 194.757812 206.488281 C 195.058594 206.746094 195.378906 206.976562 195.726562 207.171875 C 196.070312 207.367188 196.429688 207.53125 196.804688 207.65625 C 197.179688 207.78125 197.566406 207.867188 197.960938 207.917969 C 198.351562 207.96875 198.746094 207.976562 199.144531 207.949219 C 199.539062 207.921875 199.925781 207.855469 200.308594 207.75 C 200.691406 207.644531 201.058594 207.503906 201.414062 207.328125 C 201.769531 207.148438 202.101562 206.941406 202.417969 206.695312 C 202.730469 206.453125 203.015625 206.183594 203.273438 205.882812 C 203.535156 205.582031 203.761719 205.261719 203.957031 204.914062 C 204.15625 204.570312 204.316406 204.210938 204.441406 203.835938 L 228.574219 131.425781 C 228.699219 131.050781 228.789062 130.667969 228.839844 130.273438 C 228.886719 129.882812 228.898438 129.488281 228.871094 129.09375 C 228.84375 128.695312 228.777344 128.308594 228.671875 127.925781 C 228.566406 127.542969 228.425781 127.175781 228.25 126.820312 C 228.074219 126.46875 227.863281 126.132812 227.621094 125.820312 C 227.378906 125.507812 227.105469 125.222656 226.808594 124.960938 C 226.507812 124.703125 226.1875 124.472656 225.84375 124.277344 C 225.5 124.082031 225.140625 123.917969 224.761719 123.792969 Z M 224.761719 123.792969 " fill-opacity="1" fill-rule="nonzero"/></svg>